<svg xmlns="http://www.w3.org/2000/svg" width="256" height="256" viewBox="0 0 100 100"><rect width="100" height="100" rx="20" fill="#2563eb"></rect><path d="M27.46 61.54L19.55 51.02L17.11 53.56L17.11 61.54L13.23 61.54L13.23 29.29L17.11 29.29L17.11 48.79L19.19 46.29L26.26 38.82L30.99 38.82L22.15 48.31L32.02 61.54L27.46 61.54ZM35.12 38.82L39.01 38.82L39.01 64.16Q39.01 70.71 33.07 70.71L33.07 70.71Q31.79 70.71 30.69 70.33L30.69 70.33L30.69 67.23Q31.37 67.40 32.46 67.40L32.46 67.40Q33.76 67.40 34.44 66.69Q35.12 65.99 35.12 64.25L35.12 64.25L35.12 38.82ZM34.73 32.79L34.73 32.79Q34.73 31.87 35.30 31.21Q35.88 30.55 36.99 30.55L36.99 30.55Q38.13 30.55 38.71 31.20Q39.30 31.85 39.30 32.79Q39.30 33.74 38.71 34.37Q38.13 35.00 36.99 35.00Q35.86 35.00 35.29 34.37Q34.73 33.74 34.73 32.79ZM59.37 61.54L59.29 59.29Q57.02 61.96 52.64 61.96L52.64 61.96Q49.00 61.96 47.10 59.85Q45.20 57.74 45.18 53.60L45.18 53.60L45.18 38.82L49.07 38.82L49.07 53.50Q49.07 58.66 53.26 58.66L53.26 58.66Q57.72 58.66 59.19 55.34L59.19 55.34L59.19 38.82L63.07 38.82L63.07 61.54L59.37 61.54ZM83.08 61.54L83.00 59.29Q80.73 61.96 76.34 61.96L76.34 61.96Q72.71 61.96 70.81 59.85Q68.91 57.74 68.89 53.60L68.89 53.60L68.89 38.82L72.77 38.82L72.77 53.50Q72.77 58.66 76.97 58.66L76.97 58.66Q81.42 58.66 82.89 55.34L82.89 55.34L82.89 38.82L86.77 38.82L86.77 61.54L83.08 61.54Z" fill="#fff"></path></svg>